<?xml version="1.0" encoding="UTF-8" ?>
<!DOCTYPE svg PUBLIC "-//W3C//DTD SVG 1.1//EN" "http://www.w3.org/Graphics/SVG/1.1/DTD/svg11.dtd">
<svg width="1267pt" height="1234pt" viewBox="0 0 1267 1234" version="1.1" xmlns="http://www.w3.org/2000/svg">
<g id="#000000ff">
<path fill="#000000" opacity="1.00" d=" M 494.46 146.71 C 536.97 133.58 581.61 128.53 625.98 128.03 C 673.17 127.41 720.51 132.80 766.08 145.21 C 834.80 163.48 898.82 198.03 952.98 243.96 C 1024.73 304.96 1079.14 386.63 1106.05 477.00 C 1118.78 517.43 1124.56 559.76 1126.25 602.02 C 1128.74 687.54 1108.89 773.82 1068.01 849.08 C 1050.57 881.13 1029.92 911.51 1005.85 938.97 C 995.19 950.83 984.22 962.52 972.06 972.86 C 957.16 956.85 943.37 939.85 929.17 923.24 C 956.00 898.79 979.95 871.07 999.45 840.42 C 1018.00 810.97 1032.68 779.06 1042.72 745.73 C 1054.63 705.98 1060.86 664.50 1060.71 622.99 C 1060.97 596.84 1059.31 570.63 1054.76 544.85 C 1046.95 494.03 1028.57 444.99 1001.99 401.04 C 971.28 350.47 929.71 306.70 881.38 272.64 C 820.26 229.06 747.86 201.01 673.04 193.72 C 631.36 189.84 589.15 192.68 548.15 201.07 C 509.56 209.07 471.99 222.37 437.35 241.22 C 365.52 279.21 304.76 337.95 264.78 408.72 C 255.28 425.45 247.25 442.96 239.82 460.69 C 192.76 575.67 200.41 711.39 259.38 820.65 C 280.36 858.97 307.89 893.63 339.91 923.31 C 326.65 940.67 312.06 956.98 297.93 973.64 C 249.14 928.56 210.33 872.94 183.93 812.04 C 132.52 693.92 130.24 555.42 177.81 435.70 C 189.99 405.36 204.63 375.93 222.57 348.57 C 285.64 252.07 383.89 179.28 494.46 146.71 Z" />
<path fill="#000000" opacity="1.00" d=" M 521.62 296.49 C 561.29 285.16 602.82 281.11 643.99 282.58 C 670.06 282.93 696.16 285.92 721.45 292.36 C 786.77 309.34 847.06 348.49 885.75 404.23 C 904.55 430.97 917.96 461.66 923.44 493.95 C 932.76 550.75 919.85 610.64 889.15 659.22 C 874.82 681.85 856.61 702.18 834.91 717.97 C 811.34 735.19 783.96 747.04 755.46 753.12 C 708.72 762.91 659.15 751.95 618.59 727.50 C 604.21 719.27 591.50 708.56 578.01 699.03 C 552.48 679.78 526.18 661.44 502.36 640.04 C 514.89 619.53 530.30 600.89 546.70 583.39 C 579.71 603.25 607.68 630.10 639.49 651.66 C 651.99 659.79 664.47 668.46 678.75 673.18 C 700.74 679.21 724.17 680.80 746.60 676.33 C 761.70 673.38 776.04 666.66 787.91 656.86 C 811.92 638.64 830.20 613.35 841.19 585.37 C 853.20 553.44 855.09 517.06 842.95 484.88 C 831.00 453.31 808.77 426.43 782.47 405.65 C 765.90 393.04 747.88 382.25 728.59 374.35 C 663.76 348.37 589.31 348.54 524.11 373.17 C 476.94 390.52 435.66 422.66 406.32 463.36 C 396.14 477.25 387.82 492.37 379.72 507.53 C 366.98 532.15 356.54 557.88 344.01 582.61 C 320.69 577.75 297.41 572.13 275.01 563.91 C 278.82 551.91 283.80 540.30 288.63 528.68 C 305.61 488.84 326.88 450.71 353.28 416.32 C 373.37 390.04 396.69 366.11 423.21 346.26 C 452.72 324.03 486.06 306.70 521.62 296.49 Z" />
<path fill="#000000" opacity="1.00" d=" M 520.93 472.21 C 561.07 465.72 603.50 471.50 639.62 490.52 C 653.57 497.65 665.82 507.51 678.39 516.75 C 705.76 536.14 732.75 556.11 758.47 577.67 C 762.04 580.59 765.98 583.26 768.68 587.09 C 768.92 590.42 765.86 592.74 764.25 595.37 C 751.52 611.67 738.56 627.85 724.11 642.68 C 692.53 624.24 665.30 599.57 635.69 578.31 C 616.31 564.43 595.30 552.18 572.16 545.85 C 549.89 541.56 526.52 545.05 505.85 554.12 C 458.31 575.16 424.15 623.31 419.48 675.03 C 417.13 691.24 417.91 707.90 421.67 723.84 C 428.70 754.47 445.96 781.97 467.53 804.49 C 490.15 827.86 518.16 845.78 548.43 857.54 C 576.91 868.69 607.49 874.14 638.02 874.76 C 668.95 875.40 699.98 870.97 729.45 861.54 C 749.42 855.12 768.84 846.73 786.58 835.48 C 817.85 815.69 844.74 789.41 866.78 759.77 C 892.56 725.04 911.63 685.63 924.86 644.53 C 948.84 651.86 973.05 658.50 996.75 666.74 C 982.87 703.66 966.04 739.59 945.09 773.05 C 925.97 803.66 903.25 832.15 876.67 856.63 C 852.77 879.03 825.33 897.51 796.07 912.17 C 774.48 922.71 751.53 930.35 728.12 935.65 C 677.03 946.02 624.01 947.11 572.56 938.66 C 516.06 929.74 463.03 902.53 421.19 863.78 C 382.03 826.88 353.56 777.52 345.66 723.96 C 335.37 651.60 363.09 575.96 415.01 525.03 C 443.58 496.84 481.38 478.49 520.93 472.21 Z" />
<path fill="#000000" opacity="1.00" d=" M 629.07 994.97 C 642.23 994.02 655.79 997.04 666.91 1004.24 C 679.71 1012.83 688.11 1027.61 689.20 1042.95 C 690.22 1061.64 680.82 1080.84 664.72 1090.64 C 644.83 1102.51 617.99 1101.27 599.18 1087.81 C 578.31 1072.19 572.86 1039.95 587.30 1018.27 C 596.04 1003.89 612.49 995.61 629.07 994.97 M 629.27 1023.30 C 612.93 1026.71 605.89 1049.77 616.85 1062.08 C 624.33 1071.41 639.88 1073.18 648.65 1064.71 C 660.15 1054.84 658.16 1034.46 645.74 1026.23 C 640.99 1022.91 634.85 1022.16 629.27 1023.30 Z" />
<path fill="#000000" opacity="1.00" d=" M 451.24 996.82 C 462.59 996.76 473.94 996.84 485.29 996.67 C 493.59 1015.22 499.96 1034.59 506.40 1053.86 C 506.93 1055.35 507.76 1056.73 508.90 1057.88 C 515.13 1037.97 522.03 1018.26 530.04 999.00 C 530.67 996.92 533.22 997.31 534.90 996.99 C 544.47 996.62 554.05 996.97 563.63 996.82 C 563.87 998.44 562.72 999.88 562.23 1001.37 C 553.70 1021.04 546.18 1041.13 537.78 1060.85 C 532.17 1072.48 528.72 1085.34 520.67 1095.66 C 511.50 1095.77 502.34 1095.74 493.19 1095.72 C 482.00 1075.11 474.23 1052.90 465.61 1031.15 C 461.32 1019.50 455.76 1008.36 451.24 996.82 Z" />
<path fill="#000000" opacity="1.00" d=" M 705.29 997.04 C 716.88 996.53 728.50 996.91 740.10 996.88 C 742.93 998.59 744.55 1001.78 746.69 1004.27 C 751.56 1010.74 755.59 1017.83 760.83 1024.02 C 766.71 1015.24 773.88 1007.42 779.75 998.64 C 780.32 997.48 781.52 996.60 782.89 996.86 C 794.14 996.89 805.41 996.67 816.66 996.99 C 804.63 1012.61 792.89 1028.46 781.21 1044.34 C 781.15 1047.08 783.30 1049.20 784.69 1051.38 C 796.12 1066.06 807.21 1081.01 818.51 1095.78 C 806.99 1095.98 795.47 1095.79 783.95 1095.88 C 781.39 1096.28 780.07 1093.79 778.79 1092.09 C 773.81 1084.85 768.32 1077.97 763.10 1070.91 C 762.23 1069.85 761.66 1068.44 760.29 1067.98 C 753.55 1077.27 746.48 1086.33 739.77 1095.63 C 727.53 1095.95 715.27 1095.83 703.04 1096.51 C 705.18 1091.52 708.82 1087.32 712.03 1082.99 C 718.65 1074.62 725.86 1066.70 731.93 1057.92 C 734.97 1053.47 740.34 1049.90 740.89 1044.24 C 735.36 1036.20 728.93 1028.83 723.16 1020.97 C 719.51 1016.22 716.52 1011.00 712.74 1006.35 C 710.31 1003.20 707.56 1000.30 705.29 997.04 Z" />
</g>
</svg>
